<svg width="22" height="26" viewBox="0 0 22 26" fill="none" xmlns="http://www.w3.org/2000/svg">
<g clip-path="url(#clip0_661_1923)">
<path d="M11.002 0C10.1328 0 9.43056 0.702232 9.43056 1.57143V2.51429C5.84574 3.24107 3.14485 6.41339 3.14485 10.2143V11.1375C3.14485 13.4455 2.29529 15.675 0.76315 17.4036L0.399758 17.8112C-0.0127424 18.2728 -0.110957 18.9357 0.13949 19.5004C0.389936 20.0652 0.954668 20.4286 1.57342 20.4286H20.4306C21.0493 20.4286 21.6091 20.0652 21.8645 19.5004C22.1198 18.9357 22.0167 18.2728 21.6042 17.8112L21.2408 17.4036C19.7087 15.675 18.8591 13.4504 18.8591 11.1375V10.2143C18.8591 6.41339 16.1582 3.24107 12.5734 2.51429V1.57143C12.5734 0.702232 11.8712 0 11.002 0ZM13.2265 24.2246C13.8158 23.6353 14.1448 22.8348 14.1448 22H11.002H7.85913C7.85913 22.8348 8.18815 23.6353 8.77743 24.2246C9.36672 24.8138 10.1672 25.1429 11.002 25.1429C11.8368 25.1429 12.6373 24.8138 13.2265 24.2246Z" fill="#DC143C"/>
</g>
<defs>
<clipPath id="clip0_661_1923">
<rect width="22" height="25.1429" fill="white"/>
</clipPath>
</defs>
</svg>
