<svg width="21" height="24" viewBox="0 0 21 24" fill="none" xmlns="http://www.w3.org/2000/svg">
<g clip-path="url(#clip0_661_1689)">
<path d="M7.125 1.125C7.125 0.501562 6.62344 0 6 0C5.37656 0 4.875 0.501562 4.875 1.125V3H3C1.34531 3 0 4.34531 0 6V6.75V9V21C0 22.6547 1.34531 24 3 24H18C19.6547 24 21 22.6547 21 21V9V6.75V6C21 4.34531 19.6547 3 18 3H16.125V1.125C16.125 0.501562 15.6234 0 15 0C14.3766 0 13.875 0.501562 13.875 1.125V3H7.125V1.125ZM2.25 9H18.75V21C18.75 21.4125 18.4125 21.75 18 21.75H3C2.5875 21.75 2.25 21.4125 2.25 21V9Z" fill="#4D4D4D"/>
</g>
<defs>
<clipPath id="clip0_661_1689">
<rect width="21" height="24" fill="white"/>
</clipPath>
</defs>
</svg>
